# xmcd
#
# Track frame offsets: 
#        150
#        14512
#        26233
#        38533
#        51677
#        63617
#        74802
#        87267
#        99341
#        112280
#        124141
#        139056
#        153308
#        164397
#        172840
#        182607
#        194407
#        207775
#        218241
#        228158
#        242242
#        253846
#        267974
#        276416
#        287244
#        298972
#
# Disc length: 4142 seconds
#
# Revision: 3
# Processed by: cddbd v1.5.2PL0 Copyright (c) Steve Scherf et al.
# Submitted via: ExactAudioCopyFreeDBPlugin 1.0
#
DISCID=9f102c1a
DTITLE=Various Artist - The Dial Records Southern Soul Story
DYEAR=2003
DGENRE=Soul
TTITLE0=Joe Tex - Hold What You've Got
TTITLE1=Joe Tex - Be Your Own Judge
TTITLE2=Joe Tex - I Let Her Get Away
TTITLE3=Joe Tex - I Wanna Be Free
TTITLE4=Joe Tex - Say Thank You
TTITLE5=Bobby Marchan - I've Got a Thing Going On
TTITLE6=Bobby Marchan - I Gotta Sit Down and Cry
TTITLE7=Bobby Marchan - Get Down with It
TTITLE8=Bobby Marchan - Half a Mind
TTITLE9=Bobby Marchan - Just Be Yourself
TTITLE10=Clarence Reid - Somebody Will
TTITLE11=Clarence Reid - I Refuse to Give Up
TTITLE12=Paul Kelly - Only Your Love
TTITLE13=Paul Kelly - Chills and Fever
TTITLE14=Joe Tex - I Want To (Do Everything for You)
TTITLE15=Joe Tex - A Sweet Woman Like You
TTITLE16=Joe Tex - The Love You Save (May Be Your Own)
TTITLE17=Paul Kelly - Can't Help It
TTITLE18=Paul Kelly - Since I Found You
TTITLE19=Chris Harris and The Soul Agents - You Really Fooled Me
TTITLE20=Clarence Reid - Gimme a Try
TTITLE21=Len Wade - It Comes and it Goes
TTITLE22=Little Archie - You Can't Tie Me Down
TTITLE23=Little Archie - All I Have to Do
TTITLE24=Bobby Marchan - I Just Want What Belongs to Me
TTITLE25=Bobby Marchan - Sad Sack
EXTD=
EXTT0=
EXTT1=
EXTT2=
EXTT3=
EXTT4=
EXTT5=
EXTT6=
EXTT7=
EXTT8=
EXTT9=
EXTT10=
EXTT11=
EXTT12=
EXTT13=
EXTT14=
EXTT15=
EXTT16=
EXTT17=
EXTT18=
EXTT19=
EXTT20=
EXTT21=
EXTT22=
EXTT23=
EXTT24=
EXTT25=
PLAYORDER=
